<mxfile host="app.diagrams.net" modified="2023-09-28T06:08:03.484Z" agent="Mozilla/5.0 (Windows NT 10.0; Win64; x64) AppleWebKit/537.36 (KHTML, like Gecko) Chrome/117.0.0.0 Safari/537.36" etag="BOejraUeqp1LZyrAxAn8" version="21.8.2" type="github">
  <diagram name="Page-1" id="97916047-d0de-89f5-080d-49f4d83e522f">
    <mxGraphModel dx="1434" dy="782" grid="1" gridSize="10" guides="1" tooltips="1" connect="1" arrows="1" fold="1" page="1" pageScale="1.5" pageWidth="1169" pageHeight="827" background="none" math="0" shadow="0">
      <root>
        <mxCell id="0" />
        <mxCell id="1" parent="0" />
        <mxCell id="2" value="UNSW Student Network" style="rounded=1;fillColor=#d5e8d4;strokeColor=#82b366;shadow=1;fontStyle=1;fontSize=14;align=center;" parent="1" vertex="1">
          <mxGeometry x="710" y="180" width="200" height="60" as="geometry" />
        </mxCell>
        <mxCell id="6" value="1. Project outline" style="rounded=1;fillColor=#d5e8d4;strokeColor=#82b366;shadow=1;fontStyle=0;fontSize=14;align=left;" parent="1" vertex="1">
          <mxGeometry x="10" y="330" width="150" height="60" as="geometry" />
        </mxCell>
        <mxCell id="spksn7wkr87Tgkmr4TmV-58" value="" style="elbow=vertical;strokeWidth=4;endArrow=none;endFill=0;fontStyle=0;strokeColor=#82b366;fillColor=#d5e8d4;exitX=0.5;exitY=1;exitDx=0;exitDy=0;edgeStyle=orthogonalEdgeStyle;align=left;" parent="1" edge="1">
          <mxGeometry x="22" y="165.5" width="100" height="100" as="geometry">
            <mxPoint x="40" y="390" as="sourcePoint" />
            <mxPoint x="40" y="1020" as="targetPoint" />
          </mxGeometry>
        </mxCell>
        <mxCell id="spksn7wkr87Tgkmr4TmV-60" value="1.1 Scope and objectives" style="rounded=1;fillColor=#d5e8d4;strokeColor=#82B366;shadow=1;fontStyle=0;fontSize=14;align=left;" parent="1" vertex="1">
          <mxGeometry x="70" y="410" width="160" height="60" as="geometry" />
        </mxCell>
        <mxCell id="spksn7wkr87Tgkmr4TmV-61" value="" style="endArrow=none;html=1;rounded=1;entryX=0;entryY=0.5;entryDx=0;entryDy=0;strokeColor=#82B366;strokeWidth=4;endFill=0;fontStyle=0;align=left;" parent="1" target="spksn7wkr87Tgkmr4TmV-60" edge="1">
          <mxGeometry width="50" height="50" relative="1" as="geometry">
            <mxPoint x="40" y="440" as="sourcePoint" />
            <mxPoint x="130" y="540" as="targetPoint" />
          </mxGeometry>
        </mxCell>
        <mxCell id="spksn7wkr87Tgkmr4TmV-63" value="" style="endArrow=none;html=1;rounded=1;entryX=0;entryY=0.5;entryDx=0;entryDy=0;strokeColor=#82B366;strokeWidth=4;endFill=0;fontStyle=0;align=left;" parent="1" target="spksn7wkr87Tgkmr4TmV-62" edge="1">
          <mxGeometry width="50" height="50" relative="1" as="geometry">
            <mxPoint x="40" y="530" as="sourcePoint" />
            <mxPoint x="100" y="450" as="targetPoint" />
          </mxGeometry>
        </mxCell>
        <mxCell id="spksn7wkr87Tgkmr4TmV-64" value="1.3 Stakeholders report" style="rounded=1;fillColor=#d5e8d4;strokeColor=#82B366;shadow=1;fontStyle=0;fontSize=14;align=left;" parent="1" vertex="1">
          <mxGeometry x="70" y="600" width="160" height="60" as="geometry" />
        </mxCell>
        <mxCell id="spksn7wkr87Tgkmr4TmV-65" value="" style="endArrow=none;html=1;rounded=1;entryX=0;entryY=0.5;entryDx=0;entryDy=0;strokeColor=#82B366;strokeWidth=4;endFill=0;fontStyle=0;align=left;" parent="1" target="spksn7wkr87Tgkmr4TmV-64" edge="1">
          <mxGeometry width="50" height="50" relative="1" as="geometry">
            <mxPoint x="40" y="630" as="sourcePoint" />
            <mxPoint x="100" y="540" as="targetPoint" />
          </mxGeometry>
        </mxCell>
        <mxCell id="spksn7wkr87Tgkmr4TmV-66" value="1.7 Project Schedule" style="rounded=1;fillColor=#d5e8d4;strokeColor=#82B366;shadow=1;fontStyle=0;fontSize=14;align=left;" parent="1" vertex="1">
          <mxGeometry x="70" y="990" width="140" height="60" as="geometry" />
        </mxCell>
        <mxCell id="spksn7wkr87Tgkmr4TmV-78" style="edgeStyle=orthogonalEdgeStyle;rounded=0;orthogonalLoop=1;jettySize=auto;html=1;exitX=0.5;exitY=1;exitDx=0;exitDy=0;fontStyle=0;align=left;" parent="1" edge="1">
          <mxGeometry relative="1" as="geometry">
            <mxPoint x="180" y="870" as="sourcePoint" />
            <mxPoint x="180" y="870" as="targetPoint" />
          </mxGeometry>
        </mxCell>
        <mxCell id="spksn7wkr87Tgkmr4TmV-86" value="3. Frontend document" style="rounded=1;fillColor=#d5e8d4;strokeColor=#82b366;shadow=1;fontStyle=0;fontSize=14;align=left;" parent="1" vertex="1">
          <mxGeometry x="770" y="330" width="170" height="60" as="geometry" />
        </mxCell>
        <mxCell id="spksn7wkr87Tgkmr4TmV-97" value="3.4 Mobile Application" style="rounded=1;fillColor=#d5e8d4;strokeColor=#82B366;shadow=1;fontStyle=0;fontSize=14;align=left;" parent="1" vertex="1">
          <mxGeometry x="825" y="700" width="145" height="60" as="geometry" />
        </mxCell>
        <mxCell id="spksn7wkr87Tgkmr4TmV-99" value="3.3 Web Application" style="rounded=1;fillColor=#d5e8d4;strokeColor=#82B366;shadow=1;fontStyle=0;fontSize=14;align=left;" parent="1" vertex="1">
          <mxGeometry x="825" y="600" width="135" height="60" as="geometry" />
        </mxCell>
        <mxCell id="spksn7wkr87Tgkmr4TmV-100" value="3.1 Frontend source code" style="rounded=1;fillColor=#d5e8d4;strokeColor=#82B366;shadow=1;fontStyle=0;fontSize=14;align=left;" parent="1" vertex="1">
          <mxGeometry x="825" y="420" width="165" height="60" as="geometry" />
        </mxCell>
        <mxCell id="spksn7wkr87Tgkmr4TmV-103" value="4. Platform trial" style="rounded=1;fillColor=#d5e8d4;strokeColor=#82b366;shadow=1;fontStyle=0;fontSize=14;align=left;" parent="1" vertex="1">
          <mxGeometry x="1170" y="330" width="120" height="60" as="geometry" />
        </mxCell>
        <mxCell id="spksn7wkr87Tgkmr4TmV-104" value="4.1 Functional integration trial" style="rounded=1;fillColor=#d5e8d4;strokeColor=#82b366;shadow=1;fontStyle=0;fontSize=14;align=left;" parent="1" vertex="1">
          <mxGeometry x="1241" y="430" width="210" height="60" as="geometry" />
        </mxCell>
        <mxCell id="spksn7wkr87Tgkmr4TmV-105" value="" style="endArrow=none;html=1;rounded=1;strokeColor=#82B366;strokeWidth=4;endFill=0;exitX=0.25;exitY=1;exitDx=0;exitDy=0;fontStyle=0;align=left;" parent="1" edge="1">
          <mxGeometry width="50" height="50" relative="1" as="geometry">
            <mxPoint x="1202" y="390" as="sourcePoint" />
            <mxPoint x="1202" y="940" as="targetPoint" />
          </mxGeometry>
        </mxCell>
        <mxCell id="spksn7wkr87Tgkmr4TmV-106" value="4.2 Security trial" style="rounded=1;fillColor=#d5e8d4;strokeColor=#82b366;shadow=1;fontStyle=0;fontSize=14;align=left;" parent="1" vertex="1">
          <mxGeometry x="1241" y="530" width="130" height="60" as="geometry" />
        </mxCell>
        <mxCell id="spksn7wkr87Tgkmr4TmV-107" value="4.3 Load trial" style="rounded=1;fillColor=#d5e8d4;strokeColor=#82b366;shadow=1;fontStyle=0;fontSize=14;align=left;" parent="1" vertex="1">
          <mxGeometry x="1241" y="620" width="109" height="60" as="geometry" />
        </mxCell>
        <mxCell id="spksn7wkr87Tgkmr4TmV-108" value="4.4 User acceptance trial" style="rounded=1;fillColor=#d5e8d4;strokeColor=#82b366;shadow=1;fontStyle=0;fontSize=14;align=left;" parent="1" vertex="1">
          <mxGeometry x="1240" y="720" width="180" height="60" as="geometry" />
        </mxCell>
        <mxCell id="spksn7wkr87Tgkmr4TmV-127" value="5. User support file" style="rounded=1;fillColor=#d5e8d4;strokeColor=#82b366;shadow=1;fontStyle=0;fontSize=14;align=left;" parent="1" vertex="1">
          <mxGeometry x="1483" y="330" width="149" height="60" as="geometry" />
        </mxCell>
        <mxCell id="spksn7wkr87Tgkmr4TmV-129" value="5.1 Student manual" style="rounded=1;fillColor=#d5e8d4;strokeColor=#82B366;shadow=1;fontStyle=0;fontSize=14;align=left;" parent="1" vertex="1">
          <mxGeometry x="1543" y="430" width="127" height="60" as="geometry" />
        </mxCell>
        <mxCell id="spksn7wkr87Tgkmr4TmV-130" value="" style="endArrow=none;html=1;rounded=1;strokeColor=#82B366;strokeWidth=4;endFill=0;exitX=0.25;exitY=1;exitDx=0;exitDy=0;fontStyle=0;align=left;" parent="1" edge="1">
          <mxGeometry width="50" height="50" relative="1" as="geometry">
            <mxPoint x="1513.9999999999998" y="390" as="sourcePoint" />
            <mxPoint x="1514" y="560" as="targetPoint" />
          </mxGeometry>
        </mxCell>
        <mxCell id="spksn7wkr87Tgkmr4TmV-137" value="" style="endArrow=none;html=1;rounded=1;entryX=0;entryY=0.5;entryDx=0;entryDy=0;strokeColor=#82B366;strokeWidth=4;endFill=0;fontStyle=0;align=left;" parent="1" edge="1">
          <mxGeometry width="50" height="50" relative="1" as="geometry">
            <mxPoint x="1513" y="560" as="sourcePoint" />
            <mxPoint x="1543" y="560" as="targetPoint" />
          </mxGeometry>
        </mxCell>
        <mxCell id="spksn7wkr87Tgkmr4TmV-138" value="" style="endArrow=none;html=1;rounded=1;entryX=0;entryY=0.5;entryDx=0;entryDy=0;strokeColor=#82B366;strokeWidth=4;endFill=0;fontStyle=0;align=left;" parent="1" target="spksn7wkr87Tgkmr4TmV-129" edge="1">
          <mxGeometry width="50" height="50" relative="1" as="geometry">
            <mxPoint x="1513" y="460" as="sourcePoint" />
            <mxPoint x="1583" y="890" as="targetPoint" />
          </mxGeometry>
        </mxCell>
        <mxCell id="spksn7wkr87Tgkmr4TmV-140" value="" style="endArrow=none;html=1;rounded=1;entryX=0;entryY=0.5;entryDx=0;entryDy=0;strokeColor=#82B366;strokeWidth=4;endFill=0;fontStyle=0;align=left;" parent="1" target="spksn7wkr87Tgkmr4TmV-108" edge="1">
          <mxGeometry width="50" height="50" relative="1" as="geometry">
            <mxPoint x="1200" y="750" as="sourcePoint" />
            <mxPoint x="1270" y="810" as="targetPoint" />
          </mxGeometry>
        </mxCell>
        <mxCell id="spksn7wkr87Tgkmr4TmV-141" value="" style="endArrow=none;html=1;rounded=1;entryX=0;entryY=0.5;entryDx=0;entryDy=0;strokeColor=#82B366;strokeWidth=4;endFill=0;fontStyle=0;align=left;" parent="1" edge="1">
          <mxGeometry width="50" height="50" relative="1" as="geometry">
            <mxPoint x="1200" y="649.64" as="sourcePoint" />
            <mxPoint x="1240" y="649.64" as="targetPoint" />
          </mxGeometry>
        </mxCell>
        <mxCell id="spksn7wkr87Tgkmr4TmV-142" value="" style="endArrow=none;html=1;rounded=1;entryX=0;entryY=0.5;entryDx=0;entryDy=0;strokeColor=#82B366;strokeWidth=4;endFill=0;fontStyle=0;align=left;" parent="1" edge="1">
          <mxGeometry width="50" height="50" relative="1" as="geometry">
            <mxPoint x="1200" y="560" as="sourcePoint" />
            <mxPoint x="1240" y="560" as="targetPoint" />
          </mxGeometry>
        </mxCell>
        <mxCell id="spksn7wkr87Tgkmr4TmV-143" value="" style="endArrow=none;html=1;rounded=1;entryX=0;entryY=0.5;entryDx=0;entryDy=0;strokeColor=#82B366;strokeWidth=4;endFill=0;fontStyle=0;align=left;" parent="1" edge="1">
          <mxGeometry width="50" height="50" relative="1" as="geometry">
            <mxPoint x="1200" y="459.64" as="sourcePoint" />
            <mxPoint x="1240" y="459.64" as="targetPoint" />
          </mxGeometry>
        </mxCell>
        <mxCell id="spksn7wkr87Tgkmr4TmV-147" value="" style="endArrow=none;html=1;rounded=0;strokeColor=#82B366;endFill=0;strokeWidth=4;exitX=0.5;exitY=1;exitDx=0;exitDy=0;edgeStyle=orthogonalEdgeStyle;align=left;entryX=0.5;entryY=0;entryDx=0;entryDy=0;" parent="1" target="6" edge="1">
          <mxGeometry width="50" height="50" relative="1" as="geometry">
            <mxPoint x="810" y="279" as="sourcePoint" />
            <mxPoint x="85" y="350" as="targetPoint" />
          </mxGeometry>
        </mxCell>
        <mxCell id="HMT50Ie3Nu9b8irFiOJ8-11" value="3.2 UI Design and Assets document" style="rounded=1;fillColor=#d5e8d4;strokeColor=#82B366;shadow=1;fontStyle=0;fontSize=14;align=left;" parent="1" vertex="1">
          <mxGeometry x="825" y="510" width="235" height="60" as="geometry" />
        </mxCell>
        <mxCell id="HMT50Ie3Nu9b8irFiOJ8-21" value="4.5 Compatibility trial" style="rounded=1;fillColor=#d5e8d4;strokeColor=#82b366;shadow=1;fontStyle=0;fontSize=14;align=left;" parent="1" vertex="1">
          <mxGeometry x="1241" y="820" width="159" height="60" as="geometry" />
        </mxCell>
        <mxCell id="HMT50Ie3Nu9b8irFiOJ8-23" value="" style="endArrow=none;html=1;rounded=1;entryX=0;entryY=0.5;entryDx=0;entryDy=0;strokeColor=#82B366;strokeWidth=4;endFill=0;fontStyle=0;align=left;" parent="1" target="HMT50Ie3Nu9b8irFiOJ8-21" edge="1">
          <mxGeometry width="50" height="50" relative="1" as="geometry">
            <mxPoint x="1200" y="850" as="sourcePoint" />
            <mxPoint x="1250" y="760" as="targetPoint" />
          </mxGeometry>
        </mxCell>
        <mxCell id="HMT50Ie3Nu9b8irFiOJ8-24" value="4.6 Trial feedback report" style="rounded=1;fillColor=#d5e8d4;strokeColor=#82b366;shadow=1;fontStyle=0;fontSize=14;align=left;" parent="1" vertex="1">
          <mxGeometry x="1240" y="910" width="279" height="60" as="geometry" />
        </mxCell>
        <mxCell id="HMT50Ie3Nu9b8irFiOJ8-25" value="" style="endArrow=none;html=1;rounded=1;entryX=0;entryY=0.5;entryDx=0;entryDy=0;strokeColor=#82B366;strokeWidth=4;endFill=0;fontStyle=0;align=left;" parent="1" edge="1">
          <mxGeometry width="50" height="50" relative="1" as="geometry">
            <mxPoint x="1200" y="940" as="sourcePoint" />
            <mxPoint x="1241" y="940" as="targetPoint" />
          </mxGeometry>
        </mxCell>
        <mxCell id="UxzOdiLZp154J1V549cc-6" value="1.4 Functional report" style="rounded=1;fillColor=#d5e8d4;strokeColor=#82B366;shadow=1;fontStyle=0;fontSize=14;align=left;" parent="1" vertex="1">
          <mxGeometry x="70" y="700" width="140" height="60" as="geometry" />
        </mxCell>
        <mxCell id="UxzOdiLZp154J1V549cc-7" value="1.5 Non-Functional report" style="rounded=1;fillColor=#d5e8d4;strokeColor=#82B366;shadow=1;fontStyle=0;fontSize=14;align=left;" parent="1" vertex="1">
          <mxGeometry x="70" y="800" width="170" height="60" as="geometry" />
        </mxCell>
        <mxCell id="UxzOdiLZp154J1V549cc-8" value="1.6 Additional report" style="rounded=1;fillColor=#d5e8d4;strokeColor=#82B366;shadow=1;fontStyle=0;fontSize=14;align=left;" parent="1" vertex="1">
          <mxGeometry x="70" y="890" width="140" height="60" as="geometry" />
        </mxCell>
        <mxCell id="eRo0hpybtUEbokPi4bz--6" value="2. Backend document" style="rounded=1;fillColor=#d5e8d4;strokeColor=#82b366;shadow=1;fontStyle=0;fontSize=14;align=left;" vertex="1" parent="1">
          <mxGeometry x="370" y="330" width="170" height="60" as="geometry" />
        </mxCell>
        <mxCell id="eRo0hpybtUEbokPi4bz--7" value="2.1 Backend code" style="rounded=1;fillColor=#d5e8d4;strokeColor=#82b366;shadow=1;fontStyle=0;fontSize=14;align=left;" vertex="1" parent="1">
          <mxGeometry x="440" y="410" width="130" height="60" as="geometry" />
        </mxCell>
        <mxCell id="eRo0hpybtUEbokPi4bz--8" value="2.2 API Documentation" style="rounded=1;fillColor=#d5e8d4;strokeColor=#82b366;shadow=1;fontStyle=0;fontSize=14;align=left;" vertex="1" parent="1">
          <mxGeometry x="440" y="500" width="160" height="60" as="geometry" />
        </mxCell>
        <mxCell id="eRo0hpybtUEbokPi4bz--9" value="2.3 Database Schema " style="rounded=1;fillColor=#d5e8d4;strokeColor=#82b366;shadow=1;fontStyle=0;fontSize=14;align=left;" vertex="1" parent="1">
          <mxGeometry x="440" y="600" width="150" height="60" as="geometry" />
        </mxCell>
        <mxCell id="eRo0hpybtUEbokPi4bz--10" value="2.4 System security measures" style="rounded=1;fillColor=#d5e8d4;strokeColor=#82b366;shadow=1;fontStyle=0;fontSize=14;align=left;" vertex="1" parent="1">
          <mxGeometry x="440" y="700" width="200" height="60" as="geometry" />
        </mxCell>
        <mxCell id="eRo0hpybtUEbokPi4bz--12" value="2.5 Performance Optimization Strategies" style="rounded=1;fillColor=#d5e8d4;strokeColor=#82b366;shadow=1;fontStyle=0;fontSize=14;align=left;" vertex="1" parent="1">
          <mxGeometry x="440" y="800" width="260" height="60" as="geometry" />
        </mxCell>
        <mxCell id="eRo0hpybtUEbokPi4bz--15" value="2.6 Backend technical documentation" style="rounded=1;fillColor=#d5e8d4;strokeColor=#82b366;shadow=1;fontStyle=0;fontSize=14;align=left;" vertex="1" parent="1">
          <mxGeometry x="440" y="890" width="250" height="60" as="geometry" />
        </mxCell>
        <mxCell id="eRo0hpybtUEbokPi4bz--16" value="3.5 Frontend technical documentation" style="rounded=1;fillColor=#d5e8d4;strokeColor=#82b366;shadow=1;fontStyle=0;fontSize=14;align=left;" vertex="1" parent="1">
          <mxGeometry x="825" y="800" width="245" height="60" as="geometry" />
        </mxCell>
        <mxCell id="eRo0hpybtUEbokPi4bz--17" value="" style="endArrow=none;html=1;rounded=0;entryX=0.176;entryY=1;entryDx=0;entryDy=0;entryPerimeter=0;strokeColor=#82B366;strokeWidth=4;endFill=0;" edge="1" parent="1" target="eRo0hpybtUEbokPi4bz--6">
          <mxGeometry width="50" height="50" relative="1" as="geometry">
            <mxPoint x="400" y="920" as="sourcePoint" />
            <mxPoint x="810" y="600" as="targetPoint" />
          </mxGeometry>
        </mxCell>
        <mxCell id="eRo0hpybtUEbokPi4bz--19" value="" style="endArrow=none;html=1;rounded=1;entryX=0;entryY=0.5;entryDx=0;entryDy=0;strokeColor=#82B366;strokeWidth=4;endFill=0;fontStyle=0;align=left;" edge="1" parent="1" target="eRo0hpybtUEbokPi4bz--7">
          <mxGeometry width="50" height="50" relative="1" as="geometry">
            <mxPoint x="400" y="440" as="sourcePoint" />
            <mxPoint x="340" y="470" as="targetPoint" />
          </mxGeometry>
        </mxCell>
        <mxCell id="eRo0hpybtUEbokPi4bz--20" value="" style="endArrow=none;html=1;rounded=1;entryX=0;entryY=0.5;entryDx=0;entryDy=0;strokeColor=#82B366;strokeWidth=4;endFill=0;fontStyle=0;align=left;exitX=0;exitY=0.5;exitDx=0;exitDy=0;" edge="1" parent="1" source="spksn7wkr87Tgkmr4TmV-62">
          <mxGeometry width="50" height="50" relative="1" as="geometry">
            <mxPoint x="440" y="530" as="sourcePoint" />
            <mxPoint x="220" y="510" as="targetPoint" />
          </mxGeometry>
        </mxCell>
        <mxCell id="eRo0hpybtUEbokPi4bz--21" value="" style="endArrow=none;html=1;rounded=1;strokeColor=#82B366;strokeWidth=4;endFill=0;fontStyle=0;align=left;exitX=0;exitY=0.5;exitDx=0;exitDy=0;" edge="1" parent="1" source="eRo0hpybtUEbokPi4bz--8">
          <mxGeometry width="50" height="50" relative="1" as="geometry">
            <mxPoint x="500" y="580" as="sourcePoint" />
            <mxPoint x="400" y="530" as="targetPoint" />
          </mxGeometry>
        </mxCell>
        <mxCell id="spksn7wkr87Tgkmr4TmV-62" value="1.2 Funds and budget report" style="rounded=1;fillColor=#d5e8d4;strokeColor=#82B366;shadow=1;fontStyle=0;fontSize=14;align=left;" parent="1" vertex="1">
          <mxGeometry x="70" y="500" width="190" height="60" as="geometry" />
        </mxCell>
        <mxCell id="eRo0hpybtUEbokPi4bz--22" value="" style="endArrow=none;html=1;rounded=1;strokeColor=#82B366;strokeWidth=4;endFill=0;fontStyle=0;align=left;exitX=0;exitY=0.5;exitDx=0;exitDy=0;" edge="1" parent="1" source="eRo0hpybtUEbokPi4bz--9">
          <mxGeometry width="50" height="50" relative="1" as="geometry">
            <mxPoint x="450" y="540" as="sourcePoint" />
            <mxPoint x="400" y="630" as="targetPoint" />
          </mxGeometry>
        </mxCell>
        <mxCell id="eRo0hpybtUEbokPi4bz--23" value="" style="endArrow=none;html=1;rounded=1;strokeColor=#82B366;strokeWidth=4;endFill=0;fontStyle=0;align=left;exitX=0;exitY=0.5;exitDx=0;exitDy=0;" edge="1" parent="1" source="eRo0hpybtUEbokPi4bz--10">
          <mxGeometry width="50" height="50" relative="1" as="geometry">
            <mxPoint x="460" y="550" as="sourcePoint" />
            <mxPoint x="400" y="730" as="targetPoint" />
          </mxGeometry>
        </mxCell>
        <mxCell id="eRo0hpybtUEbokPi4bz--24" value="" style="endArrow=none;html=1;rounded=1;strokeColor=#82B366;strokeWidth=4;endFill=0;fontStyle=0;align=left;exitX=0;exitY=0.5;exitDx=0;exitDy=0;" edge="1" parent="1" source="eRo0hpybtUEbokPi4bz--12">
          <mxGeometry width="50" height="50" relative="1" as="geometry">
            <mxPoint x="470" y="560" as="sourcePoint" />
            <mxPoint x="400" y="830" as="targetPoint" />
          </mxGeometry>
        </mxCell>
        <mxCell id="eRo0hpybtUEbokPi4bz--25" value="" style="endArrow=none;html=1;rounded=1;strokeColor=#82B366;strokeWidth=4;endFill=0;fontStyle=0;align=left;exitX=0;exitY=0.5;exitDx=0;exitDy=0;" edge="1" parent="1" source="eRo0hpybtUEbokPi4bz--15">
          <mxGeometry width="50" height="50" relative="1" as="geometry">
            <mxPoint x="480" y="570" as="sourcePoint" />
            <mxPoint x="400" y="920" as="targetPoint" />
          </mxGeometry>
        </mxCell>
        <mxCell id="eRo0hpybtUEbokPi4bz--29" value="" style="endArrow=none;html=1;rounded=1;strokeColor=#82B366;strokeWidth=4;endFill=0;fontStyle=0;align=left;exitX=0.5;exitY=0;exitDx=0;exitDy=0;" edge="1" parent="1" source="eRo0hpybtUEbokPi4bz--6">
          <mxGeometry width="50" height="50" relative="1" as="geometry">
            <mxPoint x="310" y="320" as="sourcePoint" />
            <mxPoint x="455" y="280" as="targetPoint" />
          </mxGeometry>
        </mxCell>
        <mxCell id="eRo0hpybtUEbokPi4bz--30" value="" style="endArrow=none;html=1;rounded=1;entryX=0.5;entryY=1;entryDx=0;entryDy=0;strokeColor=#82B366;strokeWidth=4;endFill=0;fontStyle=0;align=left;" edge="1" parent="1" target="2">
          <mxGeometry width="50" height="50" relative="1" as="geometry">
            <mxPoint x="810" y="280" as="sourcePoint" />
            <mxPoint x="750" y="310" as="targetPoint" />
          </mxGeometry>
        </mxCell>
        <mxCell id="eRo0hpybtUEbokPi4bz--31" value="" style="endArrow=none;html=1;rounded=1;strokeColor=#82B366;strokeWidth=4;endFill=0;fontStyle=0;align=left;" edge="1" parent="1">
          <mxGeometry width="50" height="50" relative="1" as="geometry">
            <mxPoint x="1560" y="279" as="sourcePoint" />
            <mxPoint x="810" y="279" as="targetPoint" />
          </mxGeometry>
        </mxCell>
        <mxCell id="eRo0hpybtUEbokPi4bz--32" value="" style="endArrow=none;html=1;rounded=1;entryX=0.5;entryY=0;entryDx=0;entryDy=0;strokeColor=#82B366;strokeWidth=4;endFill=0;fontStyle=0;align=left;" edge="1" parent="1">
          <mxGeometry width="50" height="50" relative="1" as="geometry">
            <mxPoint x="1558" y="280" as="sourcePoint" />
            <mxPoint x="1558.25" y="330" as="targetPoint" />
          </mxGeometry>
        </mxCell>
        <mxCell id="eRo0hpybtUEbokPi4bz--33" value="" style="endArrow=none;html=1;rounded=1;strokeColor=#82B366;strokeWidth=4;endFill=0;fontStyle=0;align=left;exitX=0.5;exitY=0;exitDx=0;exitDy=0;" edge="1" parent="1" source="spksn7wkr87Tgkmr4TmV-86">
          <mxGeometry width="50" height="50" relative="1" as="geometry">
            <mxPoint x="450" y="520" as="sourcePoint" />
            <mxPoint x="855" y="280" as="targetPoint" />
          </mxGeometry>
        </mxCell>
        <mxCell id="eRo0hpybtUEbokPi4bz--34" value="" style="endArrow=none;html=1;rounded=1;strokeColor=#82B366;strokeWidth=4;endFill=0;fontStyle=0;align=left;exitX=0.5;exitY=0;exitDx=0;exitDy=0;" edge="1" parent="1" source="spksn7wkr87Tgkmr4TmV-103">
          <mxGeometry width="50" height="50" relative="1" as="geometry">
            <mxPoint x="1109" y="440" as="sourcePoint" />
            <mxPoint x="1230" y="280" as="targetPoint" />
          </mxGeometry>
        </mxCell>
        <mxCell id="eRo0hpybtUEbokPi4bz--35" value="" style="endArrow=none;html=1;rounded=0;entryX=0.169;entryY=1.002;entryDx=0;entryDy=0;entryPerimeter=0;strokeColor=#82B366;strokeWidth=4;endFill=0;" edge="1" parent="1" target="spksn7wkr87Tgkmr4TmV-86">
          <mxGeometry width="50" height="50" relative="1" as="geometry">
            <mxPoint x="800" y="830" as="sourcePoint" />
            <mxPoint x="740" y="410" as="targetPoint" />
          </mxGeometry>
        </mxCell>
        <mxCell id="eRo0hpybtUEbokPi4bz--36" value="" style="endArrow=none;html=1;rounded=1;strokeColor=#82B366;strokeWidth=4;endFill=0;fontStyle=0;align=left;entryX=0;entryY=0.5;entryDx=0;entryDy=0;" edge="1" parent="1" target="spksn7wkr87Tgkmr4TmV-100">
          <mxGeometry width="50" height="50" relative="1" as="geometry">
            <mxPoint x="800" y="450" as="sourcePoint" />
            <mxPoint x="760" y="500" as="targetPoint" />
          </mxGeometry>
        </mxCell>
        <mxCell id="eRo0hpybtUEbokPi4bz--37" value="" style="endArrow=none;html=1;rounded=1;strokeColor=#82B366;strokeWidth=4;endFill=0;fontStyle=0;align=left;entryX=0;entryY=0.5;entryDx=0;entryDy=0;" edge="1" parent="1" target="HMT50Ie3Nu9b8irFiOJ8-11">
          <mxGeometry width="50" height="50" relative="1" as="geometry">
            <mxPoint x="800" y="540" as="sourcePoint" />
            <mxPoint x="835" y="460" as="targetPoint" />
          </mxGeometry>
        </mxCell>
        <mxCell id="eRo0hpybtUEbokPi4bz--38" value="" style="endArrow=none;html=1;rounded=1;strokeColor=#82B366;strokeWidth=4;endFill=0;fontStyle=0;align=left;entryX=0;entryY=0.5;entryDx=0;entryDy=0;" edge="1" parent="1" target="spksn7wkr87Tgkmr4TmV-99">
          <mxGeometry width="50" height="50" relative="1" as="geometry">
            <mxPoint x="800" y="630" as="sourcePoint" />
            <mxPoint x="845" y="470" as="targetPoint" />
          </mxGeometry>
        </mxCell>
        <mxCell id="eRo0hpybtUEbokPi4bz--39" value="" style="endArrow=none;html=1;rounded=1;strokeColor=#82B366;strokeWidth=4;endFill=0;fontStyle=0;align=left;entryX=0.002;entryY=0.331;entryDx=0;entryDy=0;entryPerimeter=0;" edge="1" parent="1" target="spksn7wkr87Tgkmr4TmV-97">
          <mxGeometry width="50" height="50" relative="1" as="geometry">
            <mxPoint x="800" y="720" as="sourcePoint" />
            <mxPoint x="855" y="480" as="targetPoint" />
          </mxGeometry>
        </mxCell>
        <mxCell id="eRo0hpybtUEbokPi4bz--40" value="" style="endArrow=none;html=1;rounded=1;strokeColor=#82B366;strokeWidth=4;endFill=0;fontStyle=0;align=left;entryX=0;entryY=0.5;entryDx=0;entryDy=0;" edge="1" parent="1" target="eRo0hpybtUEbokPi4bz--16">
          <mxGeometry width="50" height="50" relative="1" as="geometry">
            <mxPoint x="800" y="830" as="sourcePoint" />
            <mxPoint x="865" y="490" as="targetPoint" />
          </mxGeometry>
        </mxCell>
        <mxCell id="eRo0hpybtUEbokPi4bz--43" value="" style="endArrow=none;html=1;rounded=1;entryX=0;entryY=0.5;entryDx=0;entryDy=0;strokeColor=#82B366;strokeWidth=4;endFill=0;fontStyle=0;align=left;" edge="1" parent="1" target="UxzOdiLZp154J1V549cc-6">
          <mxGeometry width="50" height="50" relative="1" as="geometry">
            <mxPoint x="40" y="730" as="sourcePoint" />
            <mxPoint x="80" y="640" as="targetPoint" />
          </mxGeometry>
        </mxCell>
        <mxCell id="eRo0hpybtUEbokPi4bz--44" value="" style="endArrow=none;html=1;rounded=1;entryX=0;entryY=0.5;entryDx=0;entryDy=0;strokeColor=#82B366;strokeWidth=4;endFill=0;fontStyle=0;align=left;" edge="1" parent="1" target="UxzOdiLZp154J1V549cc-7">
          <mxGeometry width="50" height="50" relative="1" as="geometry">
            <mxPoint x="40" y="830" as="sourcePoint" />
            <mxPoint x="90" y="650" as="targetPoint" />
          </mxGeometry>
        </mxCell>
        <mxCell id="eRo0hpybtUEbokPi4bz--45" value="" style="endArrow=none;html=1;rounded=1;entryX=0;entryY=0.5;entryDx=0;entryDy=0;strokeColor=#82B366;strokeWidth=4;endFill=0;fontStyle=0;align=left;" edge="1" parent="1" target="UxzOdiLZp154J1V549cc-8">
          <mxGeometry width="50" height="50" relative="1" as="geometry">
            <mxPoint x="40" y="920" as="sourcePoint" />
            <mxPoint x="100" y="660" as="targetPoint" />
          </mxGeometry>
        </mxCell>
        <mxCell id="eRo0hpybtUEbokPi4bz--46" value="" style="endArrow=none;html=1;rounded=1;entryX=0;entryY=0.5;entryDx=0;entryDy=0;strokeColor=#82B366;strokeWidth=4;endFill=0;fontStyle=0;align=left;" edge="1" parent="1" target="spksn7wkr87Tgkmr4TmV-66">
          <mxGeometry width="50" height="50" relative="1" as="geometry">
            <mxPoint x="40" y="1020" as="sourcePoint" />
            <mxPoint x="110" y="670" as="targetPoint" />
          </mxGeometry>
        </mxCell>
        <mxCell id="eRo0hpybtUEbokPi4bz--48" value="5.1 Instruction manual for &#xa;teachers and staff" style="rounded=1;fillColor=#d5e8d4;strokeColor=#82B366;shadow=1;fontStyle=0;fontSize=14;align=left;" vertex="1" parent="1">
          <mxGeometry x="1543" y="530" width="167" height="60" as="geometry" />
        </mxCell>
      </root>
    </mxGraphModel>
  </diagram>
</mxfile>
